{"title":"The.Rewrite.2014.BRRip.480p.x264.AAC-VYTO [P2PDL]","uid":11694320,"size":474803502,"categoryP":"video","categoryS":"movies","magnet":"?xt=urn:btih:e3c7a3b78b1ed49874e9e9f0c45f53f6b05b3098&amp;dn=The.Rewrite.2014.BRRip.480p.x264.AAC-VYTO+%5BP2PDL%5D&amp;tr=udp%3A%2F%2Ftracker.openbittorrent.com%3A80&amp;tr=udp%3A%2F%2Fopen.demonii.com%3A1337&amp;tr=udp%3A%2F%2Ftracker.coppersurfer.tk%3A6969&amp;tr=udp%3A%2F%2Fexodus.desync.com%3A6969","seeders":1,"leechers":0,"uploader":"ValidusVyto","files":6,"time":1423653110,"description":"The.Rewrite.2014.BRRip.480p.x264.AAC-VYTO\n\n\nGenre: Comedy | Romance\nIMDb: http://www.imdb.com/title/tt2509850/\n\nFormat                      : MPEG-4\nFile size                   : 442 MiB\nDuration                    : 1h 47mn\nOverall bit rate            : 578 Kbps\n\nVideo\nFormat                      : AVC\nBit rate                    : 541 Kbps\nWidth                       : 720 pixels\nHeight                      : 304 pixels\nDisplay aspect ratio        : 2.40:1\nFrame rate mode             : Variable\nFrame rate                  : 23.976 fps\nBit depth                   : 8 bits\nStream size                 : 414 MiB (94%)\nWriting library             : x264 core 142 r2479 dd79a61\n\nAudio\nFormat                      : AAC\nBit rate mode               : Variable\nBit rate                    : 32.0 Kbps\nChannel(s)                  : 2 channels\nChannel positions           : Front: L R\nSampling rate               : 48.0 KHz\nStream size                 : 24.5 MiB (6%)\nLanguage                    : English\n\nSubtitle                    : Yes(English)\nSource                      : 720p BluRay DTS x264-TRiPS\n &lt;a href=&quot;\nhttp://someimage.com/NmYRdIV&quot; rel=&quot;nofollow&quot; target=&quot;_NEW&quot;&gt;\nhttp://someimage.com/NmYRdIV&lt;/a&gt; &lt;a href=&quot;\nhttp://someimage.com/9jXgiTs&quot; rel=&quot;nofollow&quot; target=&quot;_NEW&quot;&gt;\nhttp://someimage.com/9jXgiTs&lt;/a&gt; &lt;a href=&quot;\nhttp://someimage.com/wIN18g9&quot; rel=&quot;nofollow&quot; target=&quot;_NEW&quot;&gt;\nhttp://someimage.com/wIN18g9&lt;/a&gt; &lt;a href=&quot;\nhttp://someimage.com/SVl5puM&quot; rel=&quot;nofollow&quot; target=&quot;_NEW&quot;&gt;\nhttp://someimage.com/SVl5puM&lt;/a&gt; &lt;a href=&quot;\nhttp://someimage.com/T8pfX1x&quot; rel=&quot;nofollow&quot; target=&quot;_NEW&quot;&gt;\nhttp://someimage.com/T8pfX1x&lt;/a&gt; &lt;a href=&quot;\nhttp://someimage.com/ZrZUMRw&quot; rel=&quot;nofollow&quot; target=&quot;_NEW&quot;&gt;\nhttp://someimage.com/ZrZUMRw&lt;/a&gt; &lt;a href=&quot;\nhttp://someimage.com/2WWnLSe&quot; rel=&quot;nofollow&quot; target=&quot;_NEW&quot;&gt;\nhttp://someimage.com/2WWnLSe&lt;/a&gt; &lt;a href=&quot;\nhttp://someimage.com/vAJTsHn&quot; rel=&quot;nofollow&quot; target=&quot;_NEW&quot;&gt;\nhttp://someimage.com/vAJTsHn&lt;/a&gt; &lt;a href=&quot;\nhttp://someimage.com/RZZ2ImH&quot; rel=&quot;nofollow&quot; target=&quot;_NEW&quot;&gt;\nhttp://someimage.com/RZZ2ImH&lt;/a&gt; &lt;a href=&quot;\nhttp://someimage.com/Z6oWqcv&quot; rel=&quot;nofollow&quot; target=&quot;_NEW&quot;&gt;\nhttp://someimage.com/Z6oWqcv&lt;/a&gt; &lt;a href=&quot;\nhttp://someimage.com/QV2vJUW&quot; rel=&quot;nofollow&quot; target=&quot;_NEW&quot;&gt;\nhttp://someimage.com/QV2vJUW&lt;/a&gt; &lt;a href=&quot;\nhttp://someimage.com/runo1Pn&quot; rel=&quot;nofollow&quot; target=&quot;_NEW&quot;&gt;\nhttp://someimage.com/runo1Pn&lt;/a&gt;\n\n\n----------------------------------------------------------------------------------------------------\n\n\nEncoder Notes: Looking For Early Access To Anything You Can Provide DVDScr, R5, DVDR, BluRay, Direct\nAudio, Music Releases and Seedboxes. If You Got anything to offer please contact us.\n\nWe require dedicated servers, so as to do more and fast releases of movies.\nSupport us by sending us LC - LezHMTo2cYaiztCCcWxB4cNFVNVpWW3GSx","torrent":{"xt":"urn:btih:e3c7a3b78b1ed49874e9e9f0c45f53f6b05b3098","amp;dn":"The.Rewrite.2014.BRRip.480p.x264.AAC-VYTO+%5BP2PDL%5D","amp;tr":["udp%3A%2F%2Ftracker.openbittorrent.com%3A80","udp%3A%2F%2Fopen.demonii.com%3A1337","udp%3A%2F%2Ftracker.coppersurfer.tk%3A6969","udp%3A%2F%2Fexodus.desync.com%3A6969"],"infoHash":"e3c7a3b78b1ed49874e9e9f0c45f53f6b05b3098","infoHashBuffer":{"type":"Buffer","data":[227,199,163,183,139,30,212,152,116,233,233,240,196,95,83,246,176,91,48,152]},"announce":[],"urlList":[]}}